<svg xmlns="http://www.w3.org/2000/svg" width="29.169" height="50.005" viewBox="0 0 29.169 50.005">
  <g id="bottom" transform="translate(-106.669 0)">
    <g id="Grupo_3" data-name="Grupo 3" transform="translate(106.669 22.918)">
      <g id="Grupo_2" data-name="Grupo 2" transform="translate(0)">
        <path id="Caminho_2" data-name="Caminho 2" d="M134.553,234.814a2.077,2.077,0,0,0-2.271.452l-11.028,11.028-11.028-11.028a2.083,2.083,0,0,0-3.557,1.473V247.3a2.086,2.086,0,0,0,.619,1.481l12.5,12.357a2.083,2.083,0,0,0,2.929,0l12.5-12.357a2.077,2.077,0,0,0,.619-1.481V236.739A2.081,2.081,0,0,0,134.553,234.814Z" transform="translate(-106.669 -234.654)" fill="#a8a8a8"/>
      </g>
    </g>
    <g id="Grupo_5" data-name="Grupo 5" transform="translate(106.669 0)">
      <g id="Grupo_4" data-name="Grupo 4" transform="translate(0)">
        <path id="Caminho_3" data-name="Caminho 3" d="M134.553.159a2.084,2.084,0,0,0-2.271.452L121.253,11.639,110.226.611a2.083,2.083,0,0,0-3.557,1.473V12.646a2.086,2.086,0,0,0,.619,1.481l12.5,12.357a2.083,2.083,0,0,0,2.929,0l12.5-12.357a2.077,2.077,0,0,0,.619-1.481V2.084A2.082,2.082,0,0,0,134.553.159Z" transform="translate(-106.669 0)" fill="#a8a8a8"/>
      </g>
    </g>
  </g>
</svg>
