<svg xmlns="http://www.w3.org/2000/svg" width="32.296" height="26.868" viewBox="0 0 32.296 26.868">
  <g id="Grupo_1" data-name="Grupo 1" transform="translate(0 0)">
    <path id="Caminho_1" data-name="Caminho 1" d="M.516,53.525,12.18,41.862a1.773,1.773,0,0,1,2.5,0l1.059,1.059a1.754,1.754,0,0,1,.516,1.25,1.789,1.789,0,0,1-.516,1.265l-6.8,6.819H30.551A1.725,1.725,0,0,1,32.3,53.992v1.5A1.791,1.791,0,0,1,30.551,57.3H8.857l6.881,6.857a1.751,1.751,0,0,1,0,2.482L14.679,67.7a1.773,1.773,0,0,1-2.5,0L.516,56.034a1.783,1.783,0,0,1,0-2.509Z" transform="translate(0 -41.346)" fill="#fff"/>
  </g>
</svg>
